<svg data-v-0dd9719b="" version="1.0" xmlns="http://www.w3.org/2000/svg" xmlns:xlink="http://www.w3.org/1999/xlink" width="100%" height="100%" viewBox="0 0 340.000000 250.000000" preserveAspectRatio="xMidYMid meet" color-interpolation-filters="sRGB" style="margin: auto;"> <rect data-v-0dd9719b="" x="0" y="0" width="100%" height="100%" fill="#fff" fill-opacity="1" class="background"></rect> <rect data-v-0dd9719b="" x="0" y="0" width="100%" height="100%" fill="url(#watermark)" fill-opacity="1" class="watermarklayer"></rect> <g data-v-0dd9719b="" fill="#333" class="icon-text-wrapper icon-svg-group iconsvg" transform="translate(48.785003662109375,94.99069595336914)"><g class="iconsvg-imagesvg" transform="translate(0,0)"><g><rect fill="#333" fill-opacity="0" stroke-width="2" x="0" y="0" width="60" height="60.01860576778802" class="image-rect"></rect> <svg x="0" y="0" width="60" height="60.01860576778802" filtersec="colorsb1895539897" class="image-svg-svg primary" style="overflow: visible;"><svg xmlns="http://www.w3.org/2000/svg" viewBox="-0.0004231940256431699 -0.00042338765342719853 96.32041931152344 96.35041809082031"><path d="M46.51 80.55a32.43 32.43 0 0 1 0-64.78V0h-.38a1.79 1.79 0 0 0-1.77 1.53l-.26 1.82a4.71 4.71 0 0 1-3.75 3.94 41.1 41.1 0 0 0-5.86 1.57 4.7 4.7 0 0 1-5.22-1.54l-1.13-1.44a1.78 1.78 0 0 0-2.3-.44l-3.52 2a1.78 1.78 0 0 0-.76 2.21l.68 1.71A4.67 4.67 0 0 1 21 16.67 43.43 43.43 0 0 0 16.67 21a4.67 4.67 0 0 1-5.28 1.28l-1.71-.68a1.78 1.78 0 0 0-2.21.76l-2 3.52a1.78 1.78 0 0 0 .44 2.3l1.44 1.13a4.7 4.7 0 0 1 1.54 5.22 41.1 41.1 0 0 0-1.57 5.86 4.71 4.71 0 0 1-3.97 3.71l-1.82.26A1.79 1.79 0 0 0 0 46.13v4.06A1.79 1.79 0 0 0 1.53 52l1.82.26A4.69 4.69 0 0 1 7.29 56a41.45 41.45 0 0 0 1.57 5.86 4.7 4.7 0 0 1-1.54 5.22l-1.44 1.1a1.78 1.78 0 0 0-.44 2.3l2 3.51a1.77 1.77 0 0 0 2.21.77l1.71-.68a4.68 4.68 0 0 1 5.28 1.27 42.48 42.48 0 0 0 4.36 4.3 4.67 4.67 0 0 1 1.28 5.28l-.68 1.71a1.78 1.78 0 0 0 .76 2.21l3.52 2a1.78 1.78 0 0 0 2.3-.44L29.27 89a4.7 4.7 0 0 1 5.22-1.54A41.1 41.1 0 0 0 40.35 89a4.69 4.69 0 0 1 3.75 4l.26 1.81a1.8 1.8 0 0 0 1.77 1.54h.38z" fill="#0087ff"></path><path d="M94.78 44.36L93 44.1a4.69 4.69 0 0 1-4-3.75 41.1 41.1 0 0 0-1.57-5.86A4.69 4.69 0 0 1 89 29.27l1.44-1.13a1.79 1.79 0 0 0 .44-2.3l-2-3.52a1.78 1.78 0 0 0-2.21-.76l-1.71.68A4.68 4.68 0 0 1 79.65 21a42.48 42.48 0 0 0-4.3-4.29 4.68 4.68 0 0 1-1.27-5.28l.68-1.71A1.78 1.78 0 0 0 74 7.47l-3.52-2a1.78 1.78 0 0 0-2.3.44l-1.13 1.41a4.7 4.7 0 0 1-5.22 1.54A41.45 41.45 0 0 0 56 7.29a4.69 4.69 0 0 1-3.75-3.94L52 1.53A1.79 1.79 0 0 0 50.19 0h-.38v15.77a32.43 32.43 0 0 1 0 64.78v15.77h.38A1.8 1.8 0 0 0 52 94.78l.22-1.78A4.66 4.66 0 0 1 56 89a41.45 41.45 0 0 0 5.86-1.57A4.69 4.69 0 0 1 67.05 89l1.13 1.44a1.79 1.79 0 0 0 2.3.44l3.52-2a1.78 1.78 0 0 0 .76-2.21l-.68-1.71a4.68 4.68 0 0 1 1.27-5.28 41.56 41.56 0 0 0 4.3-4.3 4.68 4.68 0 0 1 5.28-1.27l1.71.68a1.78 1.78 0 0 0 2.21-.79l2-3.51a1.78 1.78 0 0 0-.44-2.3L89 67.05a4.7 4.7 0 0 1-1.54-5.22A41.45 41.45 0 0 0 89 56a4.66 4.66 0 0 1 4-3.78l1.78-.22a1.8 1.8 0 0 0 1.54-1.77v-4.1a1.8 1.8 0 0 0-1.54-1.77z" fill="#ff006f"></path><path d="M49.81 21.19v13.93h8a3.06 3.06 0 1 1 0 1.83h-8v10.3h12.68a3.05 3.05 0 1 1 0 1.82H49.81v10.3h8a3.06 3.06 0 1 1 0 1.82h-8v13.94a27 27 0 0 0 0-53.94zM21.13 48.16a27 27 0 0 0 25.38 27V21.19a27 27 0 0 0-25.38 26.97zm22.18-13h-4.85a3.06 3.06 0 1 0 0 1.83h4.85v10.3h-9.49a3.05 3.05 0 1 0 0 1.82h9.49v10.3h-4.85a3.06 3.06 0 1 0 0 1.83h4.85v10.24a23.82 23.82 0 0 1 0-46.64z" fill="#2a3294"></path></svg></svg> <!----></g></g> <g transform="translate(67,5.433052062988281)"><g data-gra="path-name" fill-rule="" class="tp-name iconsvg-namesvg" transform="translate(0,0)"><g transform="scale(1)"><g><path d="M14.06 5.85L24.71-17.4 24.71-21.15 20.77-21.15 20.77-17.25 14.92-17.25 14.92-24.86 24.71-24.86 24.71-28.35 30.56-28.35 30.56-24.86 41.85-24.86 41.85-17.25 36-17.25 36-21.15 30.56-21.15 30.56-16.31 20.4 5.85 14.06 5.85ZM2.36 5.85L6.79-4.61 6.79-8.85 12.75-8.85 12.75-4.01 8.59 5.85 2.36 5.85ZM2.36-18.52L8.59-18.52 12.75-10.69 6.52-10.69 2.36-18.52ZM2.36-28.01L8.59-28.01 12.75-20.18 6.52-20.18 2.36-28.01ZM30.38 3L30.38-13.69 36.38-13.69 36.38 2.14 44.02 2.14 42.67 5.85 33.23 5.85Q32.06 5.85 31.22 5.02 30.38 4.2 30.38 3L30.38 3ZM46.88 5.85L46.88-27.68 62.21-27.68 62.21-15.6 60.45-12.45 62.21-9.3 62.21-0.49 60.52 4.58 54.71 4.58 56.36-0.49 56.36-9.3 54.6-12.45 56.36-15.6 56.36-23.96 52.69-23.96 52.69 5.85 46.88 5.85ZM64.76 5.25L64.76-27.34 86.96-27.34 86.96 2.89Q86.96 3.86 86.27 4.56 85.57 5.25 84.6 5.25L84.6 5.25 64.76 5.25ZM70.72 1.54L80.96 1.54 80.96-9.45 70.72-9.45 70.72 1.54ZM70.72-13.16L80.96-13.16 80.96-23.63 70.72-23.63 70.72-13.16ZM100.09 0.41L109.58-13.65 109.58-21.11 115.42-21.11 115.42-12.94 113.81-10.54 117.53-10.54 124.91 0.41 118.58 0.41 112.5-8.59 106.42 0.41 100.09 0.41ZM92.78-28.35L99.11-28.35 101.21-22.76 94.88-22.76 92.78-28.35ZM93.38 5.85L93.38-21.38 99.34-21.38 99.34 5.85 93.38 5.85ZM102.04-23.7L102.04-27.38 131.63-27.38 131.63 1.09 130.28 5.85 124.35 5.85 125.66 1.09 125.66-23.7 102.04-23.7ZM158.06 4.27L158.06-1.65 170.51-12.9 170.51-6.97 158.06 4.27ZM136.76-13.88L136.76-17.59 139.99-17.59 138.79-21.22 144.79-21.22 145.95-17.59 147.97-17.59 149.14-21.22 155.14-21.22 153.97-17.59 157.61-17.59 156.26-13.88 136.76-13.88ZM137.59-22.54L137.59-26.25 143.93-26.25 143.55-28.35 149.55-28.35 149.93-26.25 156.9-26.25 155.55-22.54 137.59-22.54ZM138.3 5.85L138.3-11.78 155.21-11.78 155.21 3Q155.21 4.2 154.39 5.02 153.56 5.85 152.36 5.85L152.36 5.85 138.3 5.85ZM144.15 2.14L149.36 2.14 149.36-1.13 144.15-1.13 144.15 2.14ZM144.15-4.84L149.36-4.84 149.36-8.1 144.15-8.1 144.15-4.84ZM156.9-22.35L159.26-28.35 165.07-28.35 164.18-26.06 177.79-26.06 177.79 1.24 176.36 5.85 170.44 5.85 171.86 1.24 171.86-22.35 156.9-22.35ZM158.47-20.02L164.06-20.02 168.22-12.38 162.68-12.38 158.47-20.02Z" transform="translate(-2.3600001335144043, 28.350000381469727)"></path></g> <!----> <!----> <!----> <!----> <!----> <!----> <!----></g></g> <g data-gra="path-slogan" fill-rule="" class="tp-slogan iconsvg-slogansvg" fill="#333" transform="translate(24.03417205810547,40.20000076293945)"><!----> <!----> <g transform="scale(1, 1)"><g transform="scale(1)"><path d="M7.17-6.09L7.17-6.09L6.09-6.09Q6-7.73 3.94-7.83L3.94-7.83Q2.02-7.78 2.02-6.33L2.02-6.33Q2.02-5.39 3.05-5.25L3.05-5.25L5.48-4.69Q7.41-4.22 7.41-2.34L7.41-2.34Q7.36 0.05 4.03 0.14L4.03 0.14Q2.20 0.14 1.45-0.61L1.45-0.61Q0.52-1.31 0.56-2.77L0.56-2.77L1.69-2.77Q1.73-0.80 4.03-0.75L4.03-0.75Q6.28-0.80 6.33-2.20L6.33-2.20Q6.52-3.38 4.45-3.75L4.45-3.75L2.67-4.13Q0.84-4.64 0.84-6.19L0.84-6.19Q0.98-8.72 3.84-8.81L3.84-8.81Q7.08-8.81 7.17-6.09ZM10.03-5.06L14.53-5.06L14.53-8.58L15.70-8.58L15.70 0L14.53 0L14.53-3.98L10.03-3.98L10.03 0L8.86 0L8.86-8.58L10.03-8.58L10.03-5.06ZM18.80-1.03L23.95-1.03L23.95 0L17.63 0L17.63-8.58L23.86-8.58L23.86-7.59L18.80-7.59L18.80-4.92L23.48-4.92L23.48-3.89L18.80-3.89L18.80-1.03ZM26.86-8.58L31.17-1.64L31.17-8.58L32.30-8.58L32.30 0L30.98 0L26.63-6.94L26.58-6.94L26.58 0L25.45 0L25.45-8.58L26.86-8.58ZM41.02-8.58L37.78-3.47L37.78 0L36.61 0L36.61-3.47L33.38-8.58L34.73-8.58L37.17-4.45L39.66-8.58L41.02-8.58ZM47.72 0L46.88-2.48L43.41-2.48L42.52 0L41.34 0L44.58-8.58L45.89-8.58L48.98 0L47.72 0ZM45.14-7.31L43.78-3.52L46.45-3.52L45.19-7.31L45.14-7.31ZM51.42-8.58L55.73-1.64L55.73-8.58L56.86-8.58L56.86 0L55.55 0L51.19-6.94L51.14-6.94L51.14 0L50.02 0L50.02-8.58L51.42-8.58ZM65.06-3.61L62.44-3.61L62.44-4.59L66.19-4.59L66.19 0L65.44 0L65.16-1.08Q64.17 0.09 62.34 0.14L62.34 0.14Q60.61 0.14 59.67-0.75L59.67-0.75Q58.27-2.06 58.31-4.36L58.31-4.36Q58.64-8.63 62.39-8.81L62.39-8.81Q65.58-8.63 66.05-6L66.05-6L64.92-6Q64.45-7.78 62.34-7.83L62.34-7.83Q59.67-7.64 59.53-4.31L59.53-4.31Q59.53-0.75 62.39-0.75L62.39-0.75Q63.42-0.75 64.17-1.31L64.17-1.31Q65.11-2.06 65.06-3.61L65.06-3.61ZM77.58-6.09L77.58-6.09L76.50-6.09Q76.41-7.73 74.34-7.83L74.34-7.83Q72.42-7.78 72.42-6.33L72.42-6.33Q72.42-5.39 73.45-5.25L73.45-5.25L75.89-4.69Q77.81-4.22 77.81-2.34L77.81-2.34Q77.77 0.05 74.44 0.14L74.44 0.14Q72.61 0.14 71.86-0.61L71.86-0.61Q70.92-1.31 70.97-2.77L70.97-2.77L72.09-2.77Q72.14-0.80 74.44-0.75L74.44-0.75Q76.69-0.80 76.73-2.20L76.73-2.20Q76.92-3.38 74.86-3.75L74.86-3.75L73.08-4.13Q71.25-4.64 71.25-6.19L71.25-6.19Q71.39-8.72 74.25-8.81L74.25-8.81Q77.48-8.81 77.58-6.09ZM80.44-5.06L84.94-5.06L84.94-8.58L86.11-8.58L86.11 0L84.94 0L84.94-3.98L80.44-3.98L80.44 0L79.27 0L79.27-8.58L80.44-8.58L80.44-5.06ZM93.56 0L92.72-2.48L89.25-2.48L88.36 0L87.19 0L90.42-8.58L91.73-8.58L94.83 0L93.56 0ZM90.98-7.31L89.63-3.52L92.30-3.52L91.03-7.31L90.98-7.31ZM97.27-8.58L101.58-1.64L101.58-8.58L102.70-8.58L102.70 0L101.39 0L97.03-6.94L96.98-6.94L96.98 0L95.86 0L95.86-8.58L97.27-8.58ZM111.42-8.58L108.19-3.47L108.19 0L107.02 0L107.02-3.47L103.78-8.58L105.14-8.58L107.58-4.45L110.06-8.58L111.42-8.58ZM118.13-3.19L118.13-8.58L119.30-8.58L119.30-3.05Q119.16 0.05 115.78 0.14L115.78 0.14Q112.64 0.05 112.50-2.86L112.50-2.86L112.50-8.58L113.67-8.58L113.67-3.19Q113.72-0.84 115.83-0.80L115.83-0.80Q118.13-0.84 118.13-3.19L118.13-3.19ZM122.48-8.58L126.80-1.64L126.80-8.58L127.92-8.58L127.92 0L126.61 0L122.25-6.94L122.20-6.94L122.20 0L121.08 0L121.08-8.58L122.48-8.58Z" transform="translate(-0.5602678571428572, 8.8125)"></path></g></g></g></g></g><defs v-gra="od"></defs></svg>